<?xml version="1.0" encoding="utf-8"?>
<!-- Generator: Adobe Illustrator 19.1.0, SVG Export Plug-In . SVG Version: 6.00 Build 0)  -->
<svg version="1.1" id="Layer_1" xmlns="http://www.w3.org/2000/svg" xmlns:xlink="http://www.w3.org/1999/xlink" x="0px" y="0px"
	 viewBox="0 0 318 180" style="enable-background:new 0 0 318 180;" xml:space="preserve">
<style type="text/css">
	.st0{fill:none;stroke:#000000;stroke-width:0.5;stroke-linecap:round;stroke-miterlimit:10;}
	.st1{fill:none;stroke:#000000;stroke-width:0.5;stroke-miterlimit:10;}
	.st2{fill:none;stroke:#11ACCD;stroke-width:3;stroke-linecap:round;stroke-miterlimit:10;}
	.st3{fill:#11ACCD;}
	.st4{fill:none;stroke:#11ACCD;stroke-width:4;stroke-miterlimit:10;}
	.st5{fill:none;stroke:#000000;stroke-linecap:round;stroke-linejoin:round;stroke-miterlimit:10;}
	.st6{fill:none;stroke:#000000;stroke-width:2;stroke-linecap:round;stroke-linejoin:round;stroke-miterlimit:10;}
	.st7{fill:none;stroke:#000000;stroke-width:2;stroke-miterlimit:10;}
	.st8{fill:none;stroke:#000000;stroke-linecap:round;stroke-miterlimit:10;}
	.st9{fill:none;stroke:#000000;stroke-width:1.5;stroke-miterlimit:10;}
	.st10{fill:none;stroke:#000000;stroke-width:1.5;stroke-linecap:round;stroke-miterlimit:10;}
	.st11{fill:none;stroke:#000000;stroke-width:2;stroke-linecap:round;stroke-miterlimit:10;}
	.st12{fill:none;}
	.st13{stroke:#000000;stroke-linecap:round;stroke-linejoin:round;stroke-miterlimit:10;}
	.st14{fill:none;stroke:#000000;stroke-miterlimit:10;}
	.st15{fill:#FFFFFF;stroke:#000000;stroke-miterlimit:10;}
	.st16{fill:#FF9C39;}
	.st17{fill:none;stroke:#E07D10;stroke-width:2;stroke-linecap:round;stroke-miterlimit:10;}
	.st18{fill:#E07D10;}
	.st19{fill:none;stroke:#FF9C39;stroke-width:2;stroke-linecap:round;stroke-miterlimit:10;}
	.st20{fill:none;stroke:#FF9C39;stroke-width:3;stroke-linecap:round;stroke-miterlimit:10;}
	.st21{fill:none;stroke:#1FAB54;stroke-width:3;stroke-miterlimit:10;}
	.st22{fill:#1FAB54;}
	.st23{font-family:'KaTeX_Main-Regular';}
	.st24{font-size:21px;}
	.st25{font-family:'KaTeX_Main-Italic';}
	.st26{fill:none;stroke:#11ACCD;stroke-width:2;stroke-linecap:round;stroke-miterlimit:10;}
</style>
<g>
	<g>
		<circle cx="114" cy="53.6" r="3"/>
		<rect x="108" y="47.6" class="st12" width="12" height="12"/>
	</g>
	<g>
		<circle cx="78" cy="53.6" r="3"/>
		<rect x="72" y="47.6" class="st12" width="12" height="12"/>
	</g>
	<line class="st5" x1="78.5" y1="53.6" x2="114" y2="42"/>
</g>
<g>
	<circle class="st7" cx="54" cy="108" r="18"/>
	<polyline class="st8" points="54,90 54,54 78,54 66,54 	"/>
	<line class="st5" x1="54" y1="126" x2="54" y2="150"/>
	<line class="st9" x1="54" y1="94.5" x2="54" y2="106.5"/>
	<line class="st9" x1="48" y1="100.5" x2="60" y2="100.5"/>
	<line class="st9" x1="48" y1="118.5" x2="60" y2="118.5"/>
</g>
<g>
	<polyline class="st5" points="222,112.5 222,150 222,162 54,162 54,150 	"/>
	<line class="st6" x1="234" y1="112.5" x2="210" y2="112.5"/>
	<line class="st6" x1="240" y1="112.5" x2="204" y2="112.5"/>
	<polyline class="st6" points="204,103.5 222,103.5 240,103.5 	"/>
	<polyline class="st5" points="222,103.5 222,66 222,54 198,54 	"/>
</g>
<g>
	<line class="st5" x1="179.4" y1="54" x2="198" y2="54"/>
	<polyline class="st6" points="132.6,54 136.5,45 144.3,63 152.1,45 159.9,63 167.7,45 175.5,63 179.4,54 	"/>
	<line class="st5" x1="114" y1="54" x2="132.6" y2="54"/>
	<rect x="114" y="42" class="st12" width="84" height="24"/>
</g>
<text transform="matrix(1 0 0 1 143.9999 84.0006)" class="st23 st24">R</text>
<text transform="matrix(1 0 0 1 180.0009 114.0005)" class="st23 st24">C</text>
<text transform="matrix(1 0 0 1 240.0006 162.0005)" class="st16 st23 st24">−</text>
<text transform="matrix(1 0 0 1 264.0003 114.0004)" class="st16 st25 st24">v(t)</text>
<text transform="matrix(1 0 0 1 216 30.0003)" class="st16 st25 st24">v(0) = </text>
<text transform="matrix(1 0 0 1 280.1758 30.0003)" class="st16 st23 st24">V</text>
<text transform="matrix(0.583 0 0 0.583 295.9258 36.9934)" class="st16 st23 st24">0</text>
<text transform="matrix(1 0 0 1 48.0001 30.0003)" class="st3 st25 st24">t = 0</text>
<text transform="matrix(1 0 0 1 5.9999 114.0004)" class="st23 st24">V</text>
<text transform="matrix(0.583 0 0 0.583 21.7499 120.9936)" class="st23 st24">S</text>
<text transform="matrix(1 0 0 1 240.0006 66.0009)" class="st16 st23 st24">+</text>
<g>
	<g>
		<path class="st19" d="M252,144c3.7-7,6.2-20.5,6.2-36c0-11.4-1.4-21.8-3.6-29.3"/>
		<g>
			<path class="st16" d="M252,72c2.4,2.7,5.9,5.9,9,7.6l-6.1,0.1l-4.6,3.9C251.5,80.4,252,75.6,252,72z"/>
		</g>
	</g>
</g>
<g>
	<g>
		<path class="st26" d="M101.3,60.7c-0.3-3.6-1.5-7.7-3.5-11.6C94.2,42.3,88.9,37.4,84,36"/>
		<g>
			<path class="st3" d="M100.6,68c1.5-3.3,4-7.3,6.5-9.8l-5.9,1.6l-5.5-2.5C97.8,60.1,99.6,64.5,100.6,68z"/>
		</g>
	</g>
</g>
</svg>
